<svg xmlns="http://www.w3.org/2000/svg" viewBox="0 0 1200 600" role="img" aria-label="离线世界底图">
  <rect width="1200" height="600" fill="#0b0b09"/>
  <g fill="#191814" stroke="#3a362e" stroke-width="2">
    <path d="M70 165 135 105 238 82 320 110 335 165 294 205 249 219 222 276 177 258 147 210 96 205Z"/>
    <path d="M258 289 310 309 340 374 319 465 276 530 250 452 229 350Z"/>
    <path d="M522 117 587 77 690 88 754 70 844 96 917 88 1028 133 1114 179 1080 219 1008 223 958 258 888 244 827 205 771 224 714 190 667 212 610 187 552 197 500 162Z"/>
    <path d="M587 220 663 223 710 276 689 351 638 425 591 376 562 301Z"/>
    <path d="M939 355 1005 337 1055 374 1040 427 973 440 928 399Z"/>
    <path d="M1082 265 1115 249 1134 277 1110 302Z"/>
  </g>
  <g stroke="#27241f" stroke-width="1" opacity=".8">
    <path d="M0 100h1200M0 200h1200M0 300h1200M0 400h1200M0 500h1200"/>
    <path d="M200 0v600M400 0v600M600 0v600M800 0v600M1000 0v600"/>
  </g>
</svg>
